<svg width="32" height="32" viewBox="0 0 32 32" fill="none" xmlns="http://www.w3.org/2000/svg">
<path d="M10.1875 25V10.9844H5.82812V25H10.1875ZM7.98438 9.10938C9.39062 9.10938 10.5156 7.9375 10.5156 6.53125C10.5156 5.17188 9.39062 4.04688 7.98438 4.04688C6.625 4.04688 5.5 5.17188 5.5 6.53125C5.5 7.9375 6.625 9.10938 7.98438 9.10938ZM26.4531 25H26.5V17.3125C26.5 13.5625 25.6562 10.6562 21.25 10.6562C19.1406 10.6562 17.7344 11.8281 17.125 12.9062H17.0781V10.9844H12.9062V25H17.2656V18.0625C17.2656 16.2344 17.5938 14.5 19.8438 14.5C22.0938 14.5 22.1406 16.5625 22.1406 18.2031V25H26.4531Z" fill="#D0D0D0"/>
</svg>
