<svg width="32" height="32" viewBox="0 0 32 32" fill="none" xmlns="http://www.w3.org/2000/svg">
<path d="M19 25H9V23H19V25ZM25 13.335L23.379 4L21.386 4.346L23.006 13.681L25 13.335ZM19.036 20.272L9.29 19.297L9.104 21.313L18.859 22.192L19.036 20.272ZM19.574 17.685L10.298 15.077L9.772 17.031L19.078 19.531L19.574 17.685ZM20.778 15.272L12.481 10.408L11.452 12.151L19.75 17.016L20.778 15.272ZM22.644 13.805L17.305 5.976L15.633 7.116L20.972 14.945L22.644 13.805ZM20 18V26H8V18H6V28H22V18H20Z" fill="#D0D0D0"/>
</svg>
